<svg xmlns="http://www.w3.org/2000/svg" version="1.1" xmlns:xlink="http://www.w3.org/1999/xlink" xmlns:svgjs="http://svgjs.dev/svgjs" width="1000" height="1000" viewBox="0 0 1000 1000"><g transform="matrix(1,0,0,1,0,0)"><svg viewBox="0 0 280 280" data-background-color="#ffffff" preserveAspectRatio="xMidYMid meet" height="1000" width="1000" xmlns="http://www.w3.org/2000/svg" xmlns:xlink="http://www.w3.org/1999/xlink"><defs></defs><g id="tight-bounds" transform="matrix(1,0,0,1,0,0)"><svg viewBox="0 0 280 280" height="280" width="280"><g><svg viewBox="0 0 280 280" height="280" width="280"><g><svg viewBox="0 0 280 280" height="280" width="280"><g><svg viewBox="0 0 280 280" height="280" width="280"><g><svg viewBox="0 0 280 280" height="280" width="280"><g transform="matrix(1,0,0,1,82.9404111292522,74.00336708925556)"><svg viewBox="0 0 114.11917774149559 131.99326582148888" height="131.99326582148888" width="114.11917774149559"><g><svg xmlns="http://www.w3.org/2000/svg" xmlns:xlink="http://www.w3.org/1999/xlink" version="1.1" x="0" y="0" viewBox="9 1 83 96" enable-background="new 0 0 100 100" xml:space="preserve" height="131.99326582148888" width="114.11917774149559" class="icon-o-0" data-fill-palette-color="accent" id="o-0"><g fill="#a437db" data-fill-palette-color="accent"><path fill="#a437db" d="M71.3 10.01C57.831 10.01 50.55 1 50.55 1s-7.306 9.01-20.774 9.01C17.371 10.01 9 2.528 9 2.528v48.928C9.378 83.682 50.5 97 50.5 97S92 83.682 92 51.456V2.528C92 2.528 83.703 10.01 71.3 10.01z" data-fill-palette-color="accent"></path></g></svg></g></svg></g><path d="M19.142 82.25c1.442 0.533 2.605 1.406 3.488 2.62 0.877 1.212 1.315 2.662 1.314 4.351v0l11.833-1.599-3.145 8.513-10.167 1.012-1.04 2.816 8.617 3.183-2.802 7.587-23.631-8.729 5.34-14.456c0.626-1.694 1.489-3.022 2.588-3.984 1.093-0.963 2.309-1.542 3.647-1.734 1.334-0.201 2.653-0.061 3.958 0.42zM16.598 90.094c-0.617-0.228-1.211-0.211-1.78 0.052-0.561 0.258-0.952 0.686-1.172 1.284v0l-1.839 4.98 4.365 1.612 1.839-4.979c0.221-0.598 0.193-1.181-0.084-1.749-0.268-0.572-0.711-0.971-1.329-1.2zM51.189 65.409l-4.766 7.112-3.549-1.092-4.912 7.329 2.364 2.858-4.609 6.878-15.806-21.665 5.238-7.815zM28.258 67.003l5.963 7.223 3.04-4.535-8.925-2.805zM70.1 47.532l-5.094 4.905-16.1-1.473 8.482 8.809-5.355 5.156-17.474-18.147 5.094-4.905 16.226 1.604-8.607-8.94 5.354-5.156zM69.642 18.935c7.602-4.453 13.526-3.056 17.772 4.193v0c4.243 7.243 2.563 13.091-5.038 17.544v0l-9.413 5.514-12.733-21.737zM70.263 25.576l6.624 11.307 2.312-1.354c2.926-1.714 3.471-4.138 1.635-7.274v0l-1.11-1.894c-1.84-3.14-4.223-3.854-7.149-2.14v0zM100.473 5.588c4.159-1.256 7.694-1.167 10.603 0.269 2.906 1.444 4.973 4.201 6.202 8.27v0c1.227 4.063 1.031 7.5-0.588 10.311-1.626 2.813-4.519 4.848-8.679 6.104v0c-4.159 1.256-7.686 1.168-10.581-0.265-2.889-1.435-4.951-4.197-6.186-8.285v0c-1.237-4.095-1.049-7.536 0.564-10.324 1.617-2.797 4.506-4.823 8.665-6.08zM102.217 11.364c-1.658 0.501-2.766 1.386-3.322 2.656-0.565 1.265-0.59 2.749-0.075 4.452v0l0.678 2.247c0.515 1.703 1.358 2.929 2.531 3.676 1.164 0.743 2.576 0.863 4.235 0.362v0c1.658-0.501 2.773-1.385 3.344-2.652 0.576-1.275 0.606-2.765 0.092-4.468v0l-0.679-2.247c-0.515-1.703-1.364-2.924-2.547-3.66-1.179-0.745-2.598-0.867-4.257-0.366zM152.481 25.17l-8.011 0.332-0.375-9.068c-0.047-1.127-0.051-2.283-0.012-3.468 0.038-1.184 0.088-2.181 0.148-2.99 0.067-0.809 0.106-1.325 0.118-1.547v0l-0.141 0.006-3.944 17.241-6.331 0.262-5.383-16.815-0.141 0.006c0.029 0.214 0.117 0.718 0.264 1.511 0.14 0.787 0.282 1.769 0.424 2.947 0.149 1.177 0.248 2.329 0.295 3.455v0l0.375 9.068-7.428 0.307-1.041-25.17 11.413-0.472 4.405 14.365 0.151-0.006 3.163-14.678 11.01-0.456zM171.926 3.501c3.651 0.783 6.344 2.315 8.08 4.596 1.73 2.28 2.231 5.114 1.505 8.502v0l-7.554-1.619c0.307-1.431 0.175-2.644-0.394-3.639-0.575-1.002-1.552-1.651-2.931-1.946v0c-1.602-0.343-2.885-0.093-3.849 0.751-0.97 0.843-1.647 2.157-2.03 3.943v0l-0.492 2.294c-0.379 1.766-0.299 3.236 0.24 4.409 0.53 1.178 1.57 1.933 3.12 2.266v0c1.53 0.328 2.773 0.182 3.73-0.437 0.957-0.619 1.589-1.644 1.895-3.075v0l7.298 1.564c-0.721 3.362-2.304 5.718-4.75 7.069-2.446 1.351-5.557 1.621-9.332 0.811v0c-4.202-0.901-7.149-2.659-8.841-5.274-1.7-2.61-2.1-6.013-1.201-10.208v0c0.901-4.202 2.661-7.145 5.282-8.83 2.614-1.685 6.022-2.078 10.224-1.177zM180.444 32.273l10.259-23.008 7.387 3.294-7.634 17.12 11.803 5.263-2.625 5.888zM208.36 46.695l-6.858-4.307 13.396-21.334 6.859 4.307zM237.538 38.573c2.756 2.518 4.308 5.2 4.655 8.046 0.342 2.841-0.656 5.541-2.993 8.099v0l-5.703-5.211c0.987-1.081 1.486-2.194 1.496-3.34 0.01-1.155-0.506-2.209-1.547-3.16v0c-1.21-1.105-2.444-1.537-3.702-1.295-1.263 0.238-2.511 1.031-3.743 2.379v0l-1.583 1.733c-1.218 1.334-1.891 2.643-2.018 3.926-0.137 1.285 0.38 2.462 1.549 3.531v0c1.155 1.055 2.302 1.557 3.44 1.506 1.138-0.051 2.201-0.617 3.189-1.698v0l5.51 5.035c-2.319 2.538-4.875 3.773-7.668 3.704-2.793-0.069-5.615-1.406-8.466-4.01v0c-3.173-2.899-4.829-5.904-4.969-9.016-0.15-3.111 1.222-6.251 4.116-9.419v0c2.899-3.173 5.904-4.825 9.017-4.956 3.107-0.135 6.247 1.246 9.42 4.146zM246.652 66.121l13.951 1.36 5.646 8.293-13.658-1.644-7.065 15.97-5.379-7.902 4.68-9.521-5.436-1.613-4.663 3.174-4.551-6.686 20.824-14.176 4.552 6.686zM273.142 91.81c1.172 3.002 1.529 5.707 1.071 8.113-0.465 2.409-1.881 4.101-4.247 5.076v0l-0.413 0.161-2.755-7.056 0.141-0.055c0.682-0.266 1.15-0.738 1.405-1.414 0.261-0.679 0.193-1.528-0.205-2.547v0c-0.391-1.001-0.838-1.713-1.343-2.136-0.502-0.417-0.968-0.541-1.4-0.373v0c-0.619 0.242-0.934 0.783-0.944 1.624-0.011 0.84 0.14 2.13 0.45 3.868v0c0.35 2.04 0.553 3.752 0.611 5.136 0.055 1.377-0.219 2.706-0.822 3.986-0.6 1.287-1.712 2.262-3.335 2.925v0c-2.777 1.085-5.202 0.95-7.273-0.404-2.078-1.351-3.73-3.597-4.956-6.737v0c-1.429-3.659-1.924-6.746-1.485-9.261 0.43-2.518 2.202-4.385 5.317-5.601v0l2.784 7.131c-1.182 0.462-1.854 1.077-2.015 1.846-0.155 0.767 0.021 1.798 0.527 3.093v0c0.374 0.957 0.783 1.709 1.227 2.256 0.451 0.545 0.995 0.693 1.633 0.444v0c0.569-0.222 0.859-0.736 0.869-1.54 0.017-0.807-0.121-2.054-0.412-3.742v0c-0.341-2.073-0.533-3.821-0.578-5.246-0.044-1.424 0.261-2.802 0.917-4.132 0.662-1.333 1.869-2.341 3.62-3.025v0c2.565-1.001 4.845-0.746 6.842 0.767 1.99 1.515 3.58 3.796 4.769 6.843zM33.776 198.199c-1.442 0.533-2.894 0.625-4.354 0.277-1.454-0.351-2.729-1.168-3.827-2.452v0l-7.952 8.908-3.145-8.514 7.068-7.378-1.04-2.815-8.618 3.183-2.802-7.588 23.631-8.729 5.34 14.457c0.626 1.694 0.834 3.264 0.623 4.709-0.204 1.443-0.752 2.672-1.644 3.689-0.883 1.021-1.976 1.772-3.281 2.253zM30.609 190.586c0.617-0.228 1.057-0.627 1.319-1.196 0.258-0.561 0.277-1.14 0.056-1.739v0l-1.84-4.98-4.365 1.613 1.839 4.979c0.221 0.598 0.621 1.023 1.201 1.275 0.576 0.26 1.172 0.276 1.79 0.048zM35.131 231.209l-4.767-7.112 2.359-2.867-4.912-7.329-3.543 1.101-4.61-6.878 26.047-6.387 5.238 7.815zM42.371 209.392l-8.947 2.771 3.04 4.535 5.986-7.189zM56.691 252.248l-5.093-4.904 0.863-16.144-8.482 8.808-5.355-5.156 17.473-18.147 5.094 4.905-0.989 16.275 8.608-8.939 5.354 5.156zM85.338 240.127c7.602 4.453 9.28 10.304 5.033 17.552v0c-4.243 7.243-10.165 8.637-17.767 4.184v0l-9.412-5.514 12.733-21.736zM79.849 243.916l-6.624 11.307 2.312 1.354c2.926 1.714 5.307 1.004 7.144-2.13v0l1.11-1.895c1.84-3.14 1.297-5.568-1.63-7.282v0zM109.703 249.713c4.159 1.256 7.053 3.288 8.681 6.095 1.62 2.811 1.815 6.251 0.586 10.32v0c-1.227 4.063-3.294 6.816-6.199 8.26-2.912 1.442-6.447 1.535-10.607 0.279v0c-4.159-1.256-7.047-3.283-8.664-6.08-1.611-2.795-1.799-6.236-0.564-10.324v0c1.237-4.095 3.299-6.856 6.186-8.285 2.895-1.433 6.422-1.522 10.581-0.265zM107.958 255.488c-1.658-0.501-3.071-0.377-4.237 0.372-1.171 0.741-2.013 1.963-2.528 3.666v0l-0.679 2.247c-0.515 1.703-0.491 3.191 0.073 4.462 0.558 1.263 1.667 2.145 3.325 2.646v0c1.658 0.501 3.076 0.382 4.254-0.356 1.186-0.743 2.036-1.966 2.55-3.67v0l0.679-2.247c0.515-1.703 0.483-3.19-0.095-4.458-0.569-1.273-1.683-2.161-3.342-2.662zM151.682 280l-8.011-0.331 0.375-9.068c0.047-1.127 0.138-2.279 0.274-3.457 0.136-1.177 0.268-2.166 0.395-2.968 0.134-0.801 0.216-1.312 0.245-1.532v0l-0.141-0.006-5.355 16.856-6.33-0.261-3.976-17.202-0.141-0.006c0.011 0.216 0.057 0.725 0.138 1.528 0.075 0.796 0.134 1.787 0.18 2.971 0.052 1.185 0.054 2.341 0.008 3.468v0l-0.375 9.068-7.428-0.307 1.042-25.17 11.412 0.472 3.204 14.68 0.151 0.006 4.364-14.367 11.011 0.456zM165.236 251.145c3.651-0.783 6.735-0.489 9.254 0.88 2.512 1.371 4.131 3.75 4.858 7.138v0l-7.554 1.619c-0.307-1.431-0.924-2.484-1.852-3.157-0.935-0.679-2.092-0.87-3.471-0.575v0c-1.602 0.343-2.67 1.098-3.203 2.263-0.54 1.166-0.618 2.643-0.235 4.429v0l0.492 2.295c0.379 1.766 1.054 3.074 2.026 3.923 0.967 0.857 2.225 1.12 3.774 0.787v0c1.53-0.328 2.604-0.97 3.223-1.927 0.619-0.957 0.775-2.151 0.469-3.582v0l7.298-1.564c0.721 3.362 0.242 6.16-1.436 8.394-1.677 2.234-4.404 3.756-8.179 4.566v0c-4.202 0.901-7.611 0.505-10.226-1.187-2.62-1.684-4.38-4.624-5.28-8.82v0c-0.901-4.202-0.501-7.608 1.199-10.218 1.693-2.609 4.641-4.363 8.843-5.264zM188.317 271.238l-10.26-23.008 7.387-3.294 7.634 17.12 11.803-5.263 2.626 5.888zM218.64 255.532l-6.858 4.306-13.396-21.334 6.858-4.307zM216.008 223.719c2.756-2.518 5.567-3.822 8.433-3.912 2.86-0.085 5.459 1.152 7.797 3.71v0l-5.704 5.211c-0.987-1.081-2.051-1.678-3.192-1.791-1.15-0.114-2.245 0.305-3.286 1.256v0c-1.21 1.105-1.75 2.295-1.623 3.57 0.123 1.279 0.8 2.593 2.033 3.942v0l1.583 1.733c1.218 1.334 2.461 2.122 3.729 2.364 1.267 0.252 2.486-0.156 3.656-1.225v0c1.155-1.055 1.758-2.152 1.809-3.291 0.051-1.138-0.417-2.248-1.404-3.329v0l5.51-5.034c2.319 2.538 3.319 5.195 2.999 7.97-0.32 2.776-1.905 5.466-4.756 8.071v0c-3.173 2.899-6.315 4.278-9.427 4.137-3.112-0.131-6.115-1.78-9.01-4.948v0c-2.899-3.173-4.273-6.315-4.123-9.426 0.145-3.107 1.804-6.11 4.976-9.008zM238.785 214.378l-3.85-13.478 5.645-8.293 3.478 13.31 17.449 0.716-5.38 7.902-10.574-0.862 0.493 5.648 4.663 3.174-4.552 6.686-20.824-14.176 4.551-6.686zM243.41 182.436c1.172-3.002 2.743-5.233 4.711-6.693 1.974-1.457 4.162-1.741 6.563-0.854v0l0.413 0.161-2.756 7.056-0.14-0.055c-0.682-0.266-1.346-0.237-1.992 0.087-0.652 0.322-1.177 0.993-1.575 2.013v0c-0.391 1.001-0.544 1.828-0.46 2.48 0.086 0.646 0.345 1.054 0.777 1.223v0c0.619 0.242 1.218 0.057 1.794-0.554 0.577-0.611 1.341-1.661 2.29-3.15v0c1.125-1.738 2.136-3.134 3.032-4.19 0.893-1.05 1.995-1.841 3.306-2.375 1.314-0.54 2.792-0.503 4.434 0.11v0c2.777 1.085 4.469 2.826 5.074 5.225 0.612 2.402 0.305 5.173-0.921 8.313v0c-1.429 3.659-3.156 6.265-5.182 7.816-2.022 1.56-4.591 1.732-7.706 0.516v0l2.784-7.131c1.182 0.462 2.093 0.464 2.733 0.008 0.633-0.459 1.203-1.336 1.709-2.631v0c0.374-0.957 0.583-1.787 0.627-2.491 0.038-0.706-0.262-1.184-0.901-1.433v0c-0.569-0.222-1.13-0.041-1.682 0.543-0.559 0.582-1.303 1.593-2.233 3.032v0c-1.154 1.755-2.197 3.172-3.13 4.249-0.933 1.078-2.091 1.883-3.474 2.418-1.39 0.531-2.96 0.455-4.712-0.229v0c-2.565-1.001-4.068-2.735-4.512-5.201-0.437-2.463-0.06-5.218 1.129-8.263zM3.291 142.928c0-5.407 4.384-9.791 9.791-9.791 5.407 0 9.791 4.384 9.791 9.791 0 5.407-4.384 9.791-9.791 9.79-5.407 0-9.791-4.384-9.791-9.79zM257.127 142.928c0-5.407 4.384-9.791 9.791-9.791 5.407 0 9.791 4.384 9.791 9.791 0 5.407-4.384 9.791-9.791 9.79-5.407 0-9.791-4.384-9.791-9.79z" fill="#a437db" data-fill-palette-color="primary"></path></svg></g></svg></g></svg></g></svg></g></svg><rect width="280" height="280" fill="none" stroke="none" visibility="hidden"></rect></g></svg></g></svg>